<?xml version="1.0" standalone="no"?>
<!DOCTYPE svg PUBLIC "-//W3C//DTD SVG 20010904//EN"
 "http://www.w3.org/TR/2001/REC-SVG-20010904/DTD/svg10.dtd">
<svg version="1.0" xmlns="http://www.w3.org/2000/svg"
 width="337.000000pt" height="337.000000pt" viewBox="0 0 337.000000 337.000000"
 preserveAspectRatio="xMidYMid meet">
<metadata>
Created by potrace 1.11, written by Peter Selinger 2001-2013
</metadata>
<g transform="translate(0.000000,337.000000) scale(0.100000,-0.100000)"
fill="#000000" stroke="none">
<path d="M1095 2933 c-74 -9 -130 -25 -156 -44 -23 -16 -28 -17 -23 -4 5 13 2
14 -22 5 -63 -24 -156 -83 -206 -131 -29 -28 -46 -48 -36 -45 29 9 212 45 263
51 l50 7 -28 15 c-47 24 -22 27 40 5 32 -11 87 -22 122 -25 l63 -5 -33 34
c-18 19 -30 34 -26 34 18 0 91 -43 125 -74 62 -56 172 -136 172 -125 0 5 -7
26 -15 46 -8 20 -13 38 -11 40 8 8 75 -91 89 -132 8 -22 38 -74 68 -115 30
-41 63 -95 73 -120 11 -25 21 -46 22 -48 1 -2 12 2 24 8 21 11 22 16 15 88
-21 234 -94 388 -210 443 -33 16 -73 29 -90 30 l-30 1 29 12 29 13 -35 12
c-88 29 -151 31 -228 6 -22 -7 -23 -6 -11 9 7 9 12 15 10 15 -2 -1 -17 -4 -34
-6z"/>
<path d="M719 2695 c-161 -39 -330 -154 -415 -282 -34 -51 -100 -211 -91 -220
3 -2 36 19 73 47 38 29 95 68 127 88 64 39 64 34 3 78 -32 22 -15 24 54 5 64
-17 66 -17 124 4 l60 22 -44 32 c-52 37 -43 39 36 7 57 -23 64 -24 138 -13
l78 12 -62 53 c-34 28 -57 52 -51 52 23 0 131 -49 176 -80 39 -27 161 -66 173
-55 2 1 -7 20 -19 41 -22 37 -19 36 43 -23 37 -35 72 -63 79 -63 7 0 44 -18
81 -41 l69 -40 49 23 49 24 -44 57 c-95 121 -262 229 -411 267 -89 23 -193 25
-275 5z"/>
<path d="M2327 2694 c-202 -44 -417 -160 -539 -292 l-43 -47 29 -3 c16 -2 40
-10 52 -19 22 -14 27 -13 71 12 27 14 79 40 117 56 37 16 89 46 115 67 80 65
86 68 51 22 -24 -30 -29 -42 -17 -37 10 4 48 12 85 19 38 7 80 21 97 34 32 24
214 98 222 91 2 -3 -27 -27 -64 -53 l-68 -49 85 -7 c75 -6 93 -3 153 18 87 31
103 30 49 -3 -24 -14 -40 -29 -35 -33 4 -4 34 -13 65 -20 52 -12 65 -11 135 7
l78 21 -26 -21 c-14 -12 -35 -27 -45 -33 -17 -11 -12 -15 46 -42 36 -17 102
-51 147 -76 l82 -46 -20 57 c-55 161 -197 283 -409 351 -138 44 -284 53 -413
26z"/>
<path d="M1686 2295 c-22 -7 -48 -23 -60 -34 l-20 -21 -28 27 c-38 37 -119 43
-166 13 -36 -22 -62 -72 -62 -117 0 -35 34 -110 63 -142 12 -13 60 -53 106
-89 l83 -65 35 18 c48 26 155 133 186 186 43 73 41 145 -5 193 -39 41 -79 50
-132 31z"/>
<path d="M1674 1855 c-38 -30 -71 -55 -74 -55 -3 0 -28 20 -57 45 -28 25 -53
45 -56 45 -2 0 -2 -150 1 -332 6 -452 -18 -725 -84 -951 -4 -13 6 -23 43 -39
64 -30 203 -32 281 -4 50 17 53 20 47 45 -21 82 -45 233 -56 351 -14 160 -6
651 15 830 7 63 12 116 11 118 -1 1 -33 -22 -71 -53z"/>
</g>
</svg>
